<svg width="417" height="414" viewBox="0 0 417 414" fill="none" xmlns="http://www.w3.org/2000/svg">
<path d="M163.544 400.601C160.687 399.873 158.746 398.78 157.72 397.325C156.681 395.878 156.427 394.114 156.958 392.035C157.197 391.096 157.581 390.243 158.111 389.475C158.627 388.715 159.311 388.099 160.162 387.628C161.011 387.167 162.043 386.893 163.259 386.806C164.462 386.726 165.871 386.892 167.486 387.304L170.18 387.991L172.402 379.286L174.976 379.943L169.327 402.077L163.544 400.601ZM164.346 398.468L167.314 399.225L169.616 390.202L167.209 389.588C165.796 389.227 164.582 389.078 163.566 389.142C162.54 389.202 161.703 389.51 161.056 390.065C160.407 390.631 159.938 391.479 159.649 392.609C159.273 394.083 159.463 395.297 160.219 396.254C160.972 397.22 162.348 397.958 164.346 398.468Z" fill="white"/>
<path d="M125.626 371.742C126.232 370.473 126.937 369.419 127.742 368.579C128.547 367.74 129.423 367.125 130.371 366.736C131.319 366.346 132.323 366.178 133.381 366.234C134.426 366.294 135.503 366.589 136.612 367.119C137.646 367.612 138.51 368.244 139.205 369.014C139.885 369.789 140.376 370.67 140.678 371.657C140.971 372.64 141.053 373.712 140.925 374.875C140.788 376.033 140.416 377.246 139.81 378.515C139.002 380.207 138.029 381.509 136.89 382.419C135.747 383.339 134.496 383.856 133.137 383.969C131.765 384.087 130.341 383.794 128.865 383.089C127.455 382.416 126.374 381.513 125.622 380.38C124.86 379.243 124.473 377.939 124.461 376.466C124.434 374.999 124.822 373.424 125.626 371.742ZM137.385 377.357C137.978 376.116 138.327 374.962 138.434 373.893C138.54 372.824 138.369 371.876 137.921 371.05C137.472 370.225 136.708 369.554 135.627 369.037C134.555 368.526 133.557 368.355 132.633 368.526C131.7 368.692 130.851 369.152 130.086 369.907C129.322 370.661 128.644 371.659 128.051 372.9C127.463 374.131 127.12 375.272 127.023 376.322C126.921 377.382 127.096 378.32 127.549 379.136C128.002 379.953 128.774 380.621 129.864 381.142C131.471 381.909 132.905 381.942 134.164 381.239C135.414 380.531 136.487 379.237 137.385 377.357Z" fill="white"/>
<path d="M96.2573 364.126C95.9771 363.927 95.6962 363.702 95.4146 363.45C95.127 363.208 94.8824 362.976 94.6808 362.757L96.3419 360.985C96.529 361.207 96.7505 361.435 97.0066 361.668C97.2627 361.901 97.5139 362.105 97.7602 362.28C98.3206 362.678 98.9328 362.941 99.5967 363.067C100.246 363.196 100.908 363.181 101.584 363.022C102.253 362.872 102.905 362.574 103.54 362.131C104.168 361.696 104.739 361.117 105.252 360.395L110.572 352.906L112.7 354.417L102.782 368.377L101.024 367.129L102.623 364.393L102.533 364.329C101.877 364.642 101.194 364.866 100.484 365.001C99.7692 365.145 99.0536 365.154 98.3376 365.029C97.6131 364.897 96.9197 364.596 96.2573 364.126Z" fill="white"/>
<path d="M86.9579 336.147C86.6479 335.853 86.3053 335.578 85.93 335.323C85.5548 335.068 85.2292 334.882 84.9534 334.764L86.3399 333.301C86.6523 333.41 87.0374 333.617 87.495 333.922C87.9451 334.219 88.3554 334.543 88.7259 334.895C89.3837 335.518 89.8735 336.197 90.1953 336.933C90.51 337.676 90.5684 338.478 90.3704 339.338C90.1649 340.191 89.6 341.105 88.6757 342.08L81.6895 349.452L83.4587 351.128L82.5881 352.047L80.109 351.097L76.8024 353.087L75.6683 352.012L78.3983 349.131L74.7578 345.681L76.155 344.207L79.7955 347.657L86.728 340.342C87.466 339.563 87.84 338.813 87.8501 338.09C87.8526 337.361 87.5552 336.713 86.9579 336.147Z" fill="white"/>
<path d="M58.0678 327.599C56.8229 325.981 56.262 324.5 56.3852 323.157C56.5084 321.813 57.3667 320.529 58.9602 319.303L68.1866 312.205L69.3394 313.704L67.6379 315.643L67.7142 315.742C68.5017 315.741 69.2235 315.817 69.8796 315.969C70.5274 316.128 71.1476 316.413 71.7402 316.825C72.3182 317.234 72.9088 317.831 73.5122 318.616C74.1474 319.441 74.5681 320.287 74.7746 321.153C74.9747 322.011 74.9245 322.852 74.6241 323.674C74.3174 324.488 73.7141 325.242 72.8141 325.934C71.4601 326.976 70.007 327.239 68.4547 326.725C66.9025 326.21 65.2486 324.881 63.4931 322.735L61.5934 320.471L60.7636 321.109C59.5912 322.011 58.9634 322.895 58.8803 323.76C58.7971 324.626 59.108 325.517 59.813 326.434C60.3592 327.144 60.9833 327.741 61.6851 328.226C62.3869 328.712 63.1005 329.135 63.8258 329.497L62.7512 331.329C61.9675 330.96 61.1593 330.464 60.3266 329.843C59.494 329.222 58.741 328.474 58.0678 327.599ZM63.0614 319.381L64.7391 321.382C66.1072 323.024 67.3016 324.004 68.3222 324.323C69.3429 324.642 70.299 324.458 71.1907 323.772C71.9668 323.175 72.3596 322.499 72.3691 321.742C72.3786 320.986 72.0848 320.22 71.4878 319.444C70.5605 318.238 69.4671 317.509 68.2077 317.255C66.9483 317.002 65.6498 317.39 64.3122 318.419L63.0614 319.381Z" fill="white"/>
<path d="M34.6376 305.13L40.0625 302.389C40.6854 302.074 41.2991 301.787 41.9036 301.529C42.5034 301.261 42.9707 301.054 43.3055 300.908L43.2421 300.782C42.3427 300.712 41.4562 300.401 40.5827 299.85C39.7093 299.3 38.9625 298.411 38.3423 297.183C37.3745 295.268 37.2688 293.408 38.0251 291.602C38.7674 289.791 40.4448 288.225 43.0573 286.905C44.7772 286.036 46.3591 285.564 47.8029 285.488C49.2468 285.412 50.5104 285.695 51.5939 286.338C52.6774 286.981 53.5457 287.948 54.1987 289.241C54.8095 290.449 55.089 291.557 55.0374 292.563C54.9718 293.565 54.7193 294.44 54.2799 295.187L54.3715 295.368L56.6611 294.807L57.5068 296.48L35.8075 307.445L34.6376 305.13ZM40.471 296.58C41.0301 297.687 41.6925 298.455 42.4584 298.885C43.2149 299.32 44.1029 299.46 45.1225 299.307C46.1281 299.149 47.2956 298.734 48.6251 298.062L48.7506 297.999C50.6751 297.026 51.9866 295.961 52.6851 294.802C53.3743 293.649 53.2914 292.226 52.4363 290.534C51.7175 289.112 50.659 288.31 49.2606 288.13C47.8576 287.94 46.1892 288.334 44.2554 289.311C42.2845 290.307 40.9801 291.41 40.3424 292.619C39.6999 293.819 39.7428 295.139 40.471 296.58Z" fill="white"/>
<path d="M42.8502 263.176L43.6594 265.657L20.5453 273.196L19.7362 270.715L42.8502 263.176Z" fill="white"/>
<path d="M19.8489 243.581C19.6015 242.144 19.7076 240.857 20.1673 239.721C20.6271 238.585 21.3849 237.646 22.441 236.904C23.4868 236.163 24.7745 235.662 26.3041 235.398L27.8901 235.125L29.8972 246.782C31.8731 246.41 33.2973 245.657 34.1698 244.524C35.0422 243.391 35.3291 241.957 35.0304 240.222C34.8465 239.154 34.5864 238.226 34.25 237.439C33.9135 236.651 33.4794 235.849 32.9475 235.031L35.1957 234.644C35.7222 235.431 36.1452 236.23 36.4647 237.042C36.7824 237.843 37.0393 238.814 37.2355 239.953C37.5148 241.575 37.4302 243.048 36.9818 244.373C36.5213 245.689 35.7069 246.791 34.5386 247.679C33.3703 248.567 31.8571 249.171 29.999 249.491C28.182 249.804 26.5592 249.772 25.1307 249.394C23.6901 249.008 22.5151 248.322 21.6056 247.337C20.6943 246.342 20.1088 245.09 19.8489 243.581ZM21.9484 243.251C22.1835 244.616 22.8174 245.628 23.8502 246.285C24.8829 246.942 26.2133 247.21 27.8412 247.088L26.3035 238.157C25.2992 238.34 24.4438 238.652 23.7371 239.09C23.0185 239.521 22.5017 240.08 22.1869 240.768C21.8618 241.459 21.7823 242.286 21.9484 243.251Z" fill="white"/>
<path d="M32.6081 216.682C31.8792 216.701 31.3591 216.537 31.048 216.191C30.7265 215.845 30.5592 215.416 30.5461 214.906C30.5324 214.375 30.6771 213.923 30.9801 213.551C31.2727 213.179 31.7835 212.983 32.5124 212.964C33.2309 212.946 33.7615 213.115 34.1041 213.47C34.4363 213.827 34.6092 214.27 34.6229 214.801C34.636 215.312 34.4857 215.748 34.172 216.11C33.8479 216.473 33.3266 216.663 32.6081 216.682Z" fill="white"/>
<path d="M21.2288 145.929L41.5482 158.023L40.8212 160.594L24.7934 160.771C24.3355 160.782 23.8791 160.789 23.4241 160.79C22.9619 160.778 22.5262 160.769 22.117 160.761C21.6977 160.751 21.3328 160.74 21.0223 160.728C20.7046 160.703 20.4663 160.684 20.3074 160.672C20.4521 160.734 20.6613 160.837 20.935 160.979C21.2115 161.111 21.5274 161.276 21.8828 161.474C22.241 161.662 22.6186 161.877 23.0156 162.119C23.4155 162.352 23.8175 162.595 24.2217 162.85L37.8026 171.269L37.0755 173.841L13.4441 173.458L14.1966 170.797L28.9833 171.163C29.4784 171.173 29.9656 171.191 30.445 171.219C30.9172 171.233 31.3752 171.26 31.8189 171.299C32.2654 171.327 32.699 171.364 33.1198 171.407C33.5406 171.45 33.9499 171.495 34.3478 171.543C33.9711 171.382 33.5835 171.202 33.1852 171.003C32.7769 170.801 32.3649 170.592 31.9494 170.378C31.5367 170.153 31.1204 169.921 30.7005 169.683C30.2835 169.436 29.8679 169.183 29.4536 168.925L16.9347 161.114L17.6787 158.483L32.5861 158.249C33.0968 158.242 33.5998 158.244 34.0949 158.254C34.59 158.264 35.0708 158.286 35.5374 158.321C35.9967 158.342 36.4368 158.375 36.8576 158.418C37.2712 158.448 37.6619 158.483 38.0297 158.522C37.5584 158.313 37.0663 158.082 36.5534 157.829C36.0404 157.575 35.5067 157.3 34.9521 157.002C34.4004 156.695 33.8315 156.372 33.2454 156.033L20.472 148.605L21.2288 145.929Z" fill="white"/>
<path d="M39.149 118.431C39.8514 117.153 40.7365 116.214 41.8042 115.612C42.8719 115.01 44.0499 114.748 45.3382 114.826C46.6174 114.899 47.9371 115.31 49.2973 116.057L50.7077 116.832L45.0107 127.198C46.7876 128.139 48.3704 128.438 49.759 128.096C51.1476 127.754 52.2658 126.811 53.1137 125.269C53.6355 124.319 54.0104 123.432 54.2383 122.606C54.4662 121.78 54.6271 120.882 54.7208 119.911L56.72 121.01C56.6413 121.954 56.4739 122.842 56.2177 123.676C55.9664 124.501 55.5624 125.42 55.0055 126.433C54.2128 127.875 53.2283 128.975 52.052 129.731C50.8716 130.473 49.5478 130.827 48.0806 130.793C46.6134 130.759 45.0536 130.288 43.4013 129.38C41.7855 128.492 40.5368 127.455 39.6552 126.269C38.7695 125.069 38.2781 123.801 38.1809 122.464C38.0888 121.117 38.4115 119.773 39.149 118.431ZM40.9962 119.482C40.3289 120.696 40.1942 121.882 40.5921 123.04C40.9899 124.198 41.8632 125.236 43.2121 126.156L47.577 118.214C46.6774 117.731 45.8145 117.441 44.9885 117.344C44.1583 117.232 43.4056 117.348 42.7303 117.69C42.0459 118.027 41.4678 118.624 40.9962 119.482Z" fill="white"/>
<path d="M57.9302 89.7574C59.2181 88.1732 60.5297 87.2862 61.8652 87.0965C63.2007 86.9068 64.6485 87.446 66.2085 88.7141L75.2414 96.0566L74.0488 97.5236L71.7693 96.315L71.6904 96.412C71.8732 97.178 71.966 97.8978 71.9689 98.5714C71.9637 99.2384 71.8291 99.9076 71.5652 100.579C71.2998 101.236 70.855 101.948 70.2308 102.716C69.5737 103.524 68.8475 104.129 68.0521 104.529C67.2633 104.922 66.4341 105.067 65.5645 104.964C64.7015 104.853 63.8295 104.439 62.9484 103.723C61.6228 102.646 61.0314 101.292 61.1743 99.6635C61.3171 98.0345 62.2301 96.1186 63.9131 93.916L65.6789 91.5456L64.8665 90.8852C63.7187 89.9522 62.7141 89.545 61.8525 89.6636C60.991 89.7821 60.1956 90.29 59.4662 91.1872C58.9012 91.8824 58.4634 92.6273 58.153 93.4221C57.8426 94.2168 57.5949 95.0088 57.4097 95.798L55.3794 95.1745C55.5585 94.3267 55.8542 93.4261 56.2668 92.4727C56.6793 91.5193 57.2338 90.6143 57.9302 89.7574ZM67.0777 92.7229L65.5167 94.8167C64.2344 96.5263 63.5558 97.9144 63.4808 98.9811C63.4058 100.048 63.8047 100.936 64.6777 101.645C65.4375 102.263 66.1866 102.489 66.9248 102.324C67.6631 102.159 68.341 101.697 68.9586 100.937C69.9179 99.7568 70.3757 98.5248 70.332 97.2409C70.2884 95.9569 69.6118 94.7828 68.3023 93.7184L67.0777 92.7229Z" fill="white"/>
<path d="M82.3773 64.0712C82.6349 63.8435 82.9179 63.6211 83.2265 63.4039C83.5281 63.179 83.8089 62.9933 84.0688 62.847L85.4167 64.8671C85.1577 64.9988 84.8856 65.1628 84.6005 65.3593C84.3153 65.5557 84.0596 65.754 83.8333 65.9541C83.3182 66.4094 82.9235 66.946 82.6494 67.5637C82.3761 68.1668 82.2402 68.8152 82.2418 69.509C82.2365 70.195 82.3777 70.8974 82.6655 71.6162C82.9465 72.3271 83.3802 73.0143 83.9666 73.6777L90.0517 80.5611L88.0967 82.2894L76.7544 69.459L78.3699 68.0309L80.6711 70.2093L80.753 70.1369C80.5975 69.4262 80.5346 68.7102 80.5643 67.9888C80.587 67.2597 80.7407 66.5607 81.0254 65.8919C81.3179 65.2162 81.7686 64.6093 82.3773 64.0712Z" fill="white"/>
<path d="M104.345 47.5555C106.075 46.4718 107.603 46.0557 108.928 46.3073C110.253 46.5588 111.45 47.5365 112.517 49.2403L118.696 59.1056L117.093 60.1092L115.326 58.2294L115.22 58.2957C115.146 59.0798 115.001 59.791 114.787 60.4294C114.566 61.059 114.223 61.6489 113.757 62.1993C113.293 62.7352 112.642 63.2658 111.804 63.7911C110.921 64.3441 110.038 64.6817 109.156 64.804C108.283 64.9208 107.451 64.7902 106.662 64.4122C105.881 64.0287 105.189 63.3559 104.586 62.3936C103.679 60.9458 103.556 59.4741 104.217 57.9784C104.878 56.4827 106.361 54.9642 108.665 53.4227L111.101 51.7492L110.546 50.862C109.761 49.6085 108.941 48.8987 108.087 48.7328C107.234 48.5669 106.317 48.7908 105.337 49.4046C104.578 49.8801 103.923 50.4439 103.373 51.0959C102.822 51.7479 102.332 52.4174 101.902 53.1047L100.182 51.8592C100.625 51.1145 101.196 50.3576 101.894 49.5885C102.592 48.8193 103.409 48.1416 104.345 47.5555ZM112.045 53.3151L109.892 54.7929C108.126 55.9971 107.036 57.0918 106.621 58.0771C106.205 59.0624 106.296 60.0318 106.894 60.9852C107.413 61.8151 108.049 62.271 108.801 62.3531C109.553 62.4352 110.344 62.2164 111.174 61.6966C112.463 60.8893 113.294 59.871 113.667 58.6417C114.04 57.4124 113.779 56.0827 112.883 54.6526L112.045 53.3151Z" fill="white"/>
<path d="M128.959 26.3909L131.167 32.0538C131.42 32.7041 131.647 33.3425 131.846 33.9691C132.056 34.5918 132.217 35.0768 132.33 35.4241L132.461 35.373C132.618 34.4846 133.012 33.6321 133.644 32.8155C134.276 31.9989 135.232 31.3409 136.514 30.8414C138.513 30.062 140.375 30.1354 142.1 31.0616C143.831 31.9743 145.228 33.7943 146.291 36.5214C146.991 38.3169 147.31 39.9369 147.247 41.3813C147.184 42.8257 146.781 44.0564 146.037 45.0731C145.293 46.0899 144.246 46.8613 142.897 47.3872C141.635 47.8791 140.506 48.051 139.509 47.903C138.518 47.7415 137.672 47.4062 136.971 46.8971L136.781 46.9709L137.121 49.3038L135.374 49.9849L126.543 27.333L128.959 26.3909ZM136.909 33.0182C135.754 33.4685 134.926 34.0541 134.425 34.7751C133.919 35.4864 133.694 36.3568 133.749 37.3864C133.81 38.4025 134.111 39.6045 134.652 40.9923L134.703 41.1233C135.486 43.1323 136.421 44.54 137.506 45.3465C138.588 46.1433 140.013 46.1974 141.779 45.5088C143.264 44.9299 144.163 43.9531 144.477 42.5786C144.801 41.2003 144.569 39.5018 143.782 37.4831C142.98 35.4256 142.007 34.0214 140.865 33.2705C139.732 32.5158 138.414 32.4317 136.909 33.0182Z" fill="white"/>
<path d="M169.931 38.5937L167.384 39.1609L162.099 15.4298L164.646 14.8626L169.931 38.5937Z" fill="white"/>
<path d="M191.644 17.58C193.098 17.4717 194.369 17.7009 195.456 18.2675C196.542 18.8342 197.404 19.6788 198.042 20.8012C198.678 21.9133 199.054 23.2432 199.169 24.791L199.289 26.3959L187.493 27.2745C187.674 29.277 188.286 30.7669 189.33 31.7441C190.375 32.7214 191.774 33.1446 193.53 33.0138C194.61 32.9334 195.559 32.7635 196.375 32.5042C197.191 32.2449 198.032 31.8899 198.897 31.439L199.066 33.7139C198.233 34.1625 197.396 34.5068 196.558 34.7468C195.729 34.9861 194.739 35.1487 193.586 35.2346C191.944 35.3568 190.486 35.1312 189.211 34.5577C187.945 33.973 186.926 33.0565 186.154 31.8083C185.383 30.5601 184.927 28.9959 184.787 27.1157C184.65 25.2771 184.838 23.6649 185.351 22.2792C185.873 20.8824 186.669 19.7786 187.736 18.9679C188.814 18.1564 190.117 17.6938 191.644 17.58ZM191.771 19.7015C190.389 19.8044 189.322 20.3383 188.568 21.3031C187.815 22.268 187.421 23.5665 187.386 25.1986L196.423 24.5255C196.337 23.5082 196.109 22.6269 195.74 21.8814C195.381 21.1247 194.874 20.5567 194.219 20.1772C193.563 19.7873 192.747 19.6287 191.771 19.7015Z" fill="white"/>
<path d="M217.194 32.8628C217.245 32.1355 217.458 31.6336 217.833 31.3572C218.208 31.0704 218.65 30.9449 219.159 30.9809C219.689 31.0182 220.125 31.2056 220.467 31.543C220.809 31.87 220.955 32.3972 220.903 33.1245C220.853 33.8415 220.634 34.3534 220.247 34.6603C219.86 34.9567 219.402 35.0863 218.872 35.0489C218.363 35.0129 217.943 34.8215 217.613 34.4744C217.283 34.117 217.143 33.5798 217.194 32.8628Z" fill="white"/>
<path d="M271.95 24.1214C270.76 23.7052 269.616 23.5368 268.518 23.6161C267.433 23.689 266.42 23.9969 265.48 24.5398C264.553 25.0762 263.722 25.8282 262.986 26.7958C262.25 27.7634 261.643 28.9305 261.165 30.2972C260.532 32.1064 260.262 33.7776 260.355 35.3109C260.461 36.8377 260.947 38.161 261.813 39.2807C262.689 40.4039 263.973 41.2613 265.664 41.8529C266.628 42.19 267.56 42.4278 268.46 42.5663C269.374 42.6984 270.277 42.7825 271.17 42.8188L270.406 45.0016C269.516 45.0214 268.615 44.9487 267.701 44.7837C266.784 44.6285 265.731 44.3428 264.541 43.9266C262.349 43.1596 260.673 42.0658 259.515 40.6453C258.37 39.2183 257.719 37.5451 257.563 35.6254C257.417 33.7092 257.739 31.6204 258.53 29.3589C259.101 27.7267 259.848 26.3163 260.772 25.1274C261.709 23.9322 262.787 22.9961 264.006 22.319C265.235 21.6453 266.581 21.2666 268.045 21.1828C269.522 21.0926 271.092 21.3381 272.753 21.9194C273.845 22.3012 274.859 22.7774 275.796 23.348C276.733 23.9186 277.539 24.5482 278.214 25.2369L276.468 27.0098C275.89 26.4544 275.228 25.9191 274.481 25.4041C273.747 24.8826 272.904 24.4551 271.95 24.1214Z" fill="white"/>
<path d="M303.556 42.1561C303.855 42.3247 304.158 42.5191 304.464 42.7394C304.776 42.9505 305.043 43.1548 305.267 43.3524L303.801 45.2884C303.591 45.0869 303.347 44.8837 303.068 44.6788C302.789 44.4739 302.518 44.2974 302.255 44.1492C301.655 43.812 301.019 43.6153 300.346 43.559C299.686 43.4987 299.029 43.5831 298.374 43.8122C297.724 44.0322 297.107 44.3961 296.523 44.9038C295.943 45.4024 295.436 46.0376 295.002 46.8092L290.496 54.8158L288.222 53.536L296.621 38.6121L298.5 39.6697L297.197 42.5582L297.293 42.6118C297.913 42.2318 298.569 41.9374 299.26 41.7288C299.956 41.511 300.667 41.4269 301.392 41.4764C302.126 41.5311 302.847 41.7576 303.556 42.1561Z" fill="white"/>
<path d="M326.53 57.5823C327.667 58.4958 328.439 59.5305 328.846 60.6865C329.254 61.8424 329.307 63.048 329.007 64.3032C328.713 65.5504 328.079 66.7788 327.107 67.9887L326.099 69.2431L316.879 61.8337C315.644 63.4204 315.075 64.9272 315.171 66.3541C315.267 67.781 316.001 69.0459 317.373 70.1486C318.218 70.8273 319.027 71.3505 319.8 71.7182C320.574 72.0859 321.43 72.4002 322.37 72.6609L320.941 74.4391C320.026 74.198 319.18 73.8789 318.403 73.4818C317.634 73.0913 316.799 72.5339 315.898 71.8096C314.615 70.7786 313.704 69.6183 313.163 68.3287C312.637 67.0374 312.518 65.6723 312.806 64.2332C313.094 62.7941 313.828 61.3397 315.009 59.8701C316.164 58.4329 317.402 57.3831 318.723 56.7207C320.059 56.0566 321.393 55.7928 322.727 55.9291C324.069 56.072 325.336 56.6231 326.53 57.5823ZM325.174 59.2191C324.095 58.3512 322.95 58.0128 321.741 58.2037C320.532 58.3946 319.357 59.0744 318.218 60.2432L325.282 65.9202C325.913 65.1179 326.348 64.3185 326.588 63.5219C326.841 62.7237 326.859 61.9624 326.639 61.238C326.426 60.5054 325.938 59.8325 325.174 59.2191Z" fill="white"/>
<path d="M351.51 81.0546C352.846 82.5978 353.492 84.0435 353.447 85.3916C353.402 86.7398 352.62 88.072 351.101 89.3883L342.302 97.0099L341.064 95.5809L342.65 93.5456L342.568 93.4512C341.782 93.4982 341.057 93.4647 340.393 93.3506C339.737 93.2298 339.102 92.9811 338.486 92.6047C337.885 92.2293 337.261 91.6677 336.613 90.9197C335.931 90.1323 335.462 89.3122 335.205 88.4594C334.956 87.6144 334.957 86.7727 335.209 85.9341C335.468 85.1035 336.027 84.3164 336.885 83.573C338.176 82.4545 339.611 82.1069 341.191 82.5303C342.77 82.9537 344.499 84.1853 346.376 86.225L348.404 88.3753L349.195 87.6899C350.313 86.7214 350.889 85.8027 350.921 84.9336C350.954 84.0646 350.592 83.1931 349.835 82.3192C349.248 81.642 348.591 81.0817 347.862 80.638C347.133 80.1944 346.396 79.813 345.651 79.4937L346.617 77.6024C347.421 77.9258 348.257 78.3734 349.124 78.9451C349.992 79.5168 350.787 80.22 351.51 81.0546ZM347.002 89.5487L345.211 87.648C343.749 86.0885 342.5 85.1792 341.463 84.9202C340.425 84.6613 339.481 84.9001 338.631 85.6367C337.891 86.2778 337.538 86.9762 337.573 87.7319C337.607 88.4876 337.945 89.2355 338.586 89.9756C339.582 91.1251 340.716 91.7897 341.988 91.9695C343.26 92.1493 344.533 91.6868 345.809 90.5819L347.002 89.5487Z" fill="white"/>
<path d="M358.028 115.776C358.254 116.138 358.516 116.49 358.815 116.832C359.114 117.173 359.382 117.436 359.619 117.62L357.908 118.686C357.634 118.501 357.313 118.203 356.947 117.793C356.587 117.392 356.271 116.975 356.001 116.542C355.522 115.773 355.219 114.992 355.093 114.199C354.976 113.4 355.122 112.61 355.53 111.827C355.944 111.054 356.722 110.312 357.862 109.601L366.481 104.229L365.192 102.161L366.266 101.491L368.426 103.036L372.127 101.944L372.954 103.27L369.585 105.369L372.238 109.626L370.514 110.7L367.861 106.444L359.308 111.774C358.398 112.342 357.847 112.974 357.655 113.67C357.468 114.376 357.593 115.077 358.028 115.776Z" fill="white"/>
<path d="M383.931 131.493C384.5 132.836 384.69 134.113 384.502 135.324C384.314 136.535 383.79 137.623 382.931 138.586C382.082 139.545 380.943 140.328 379.514 140.934L378.032 141.561L373.417 130.671C371.578 131.484 370.363 132.542 369.773 133.844C369.182 135.147 369.23 136.608 369.917 138.229C370.34 139.227 370.805 140.07 371.312 140.76C371.819 141.451 372.425 142.133 373.129 142.807L371.029 143.697C370.337 143.052 369.743 142.37 369.246 141.653C368.754 140.945 368.282 140.059 367.831 138.994C367.189 137.479 366.935 136.025 367.069 134.633C367.217 133.247 367.759 131.988 368.693 130.857C369.628 129.725 370.964 128.792 372.7 128.056C374.397 127.337 375.985 126.998 377.462 127.039C378.952 127.086 380.253 127.486 381.363 128.237C382.477 128.998 383.333 130.083 383.931 131.493ZM381.962 132.294C381.421 131.018 380.573 130.178 379.418 129.774C378.262 129.37 376.906 129.413 375.349 129.903L378.885 138.247C379.821 137.839 380.582 137.341 381.17 136.753C381.772 136.17 382.147 135.507 382.297 134.765C382.455 134.019 382.344 133.195 381.962 132.294Z" fill="white"/>
<path d="M382.162 194.923L389.097 191.404L388.187 182.293L380.695 180.23L380.428 177.556L404.14 184.171L404.378 186.55L382.435 197.659L382.162 194.923ZM391.365 190.377L398.267 187.003C398.448 186.922 398.743 186.788 399.154 186.6C399.565 186.423 399.992 186.239 400.433 186.049C400.875 185.858 401.231 185.702 401.502 185.581C401.066 185.52 400.63 185.448 400.192 185.366C399.766 185.293 399.366 185.218 398.992 185.14C398.628 185.062 398.318 184.993 398.061 184.935L390.623 182.945L391.365 190.377Z" fill="white"/>
<path d="M399.367 225.466C399.164 227.487 398.513 228.966 397.414 229.903C396.326 230.84 394.688 231.199 392.501 230.98L381.4 229.865L381.656 227.315L392.586 228.413C394.006 228.555 395.101 228.336 395.871 227.753C396.641 227.182 397.092 226.227 397.227 224.89C397.416 223.004 397.015 221.624 396.025 220.749C395.034 219.875 393.523 219.336 391.492 219.132L382.568 218.236L382.827 215.655L399.867 217.366L399.657 219.45L397.162 219.592L397.148 219.731C397.713 220.155 398.169 220.666 398.517 221.267C398.875 221.868 399.123 222.526 399.261 223.241C399.409 223.958 399.444 224.699 399.367 225.466Z" fill="white"/>
<path d="M395.238 251.535L394.458 254.205L383.859 255.05C383.238 255.097 382.641 255.134 382.069 255.162C381.506 255.194 380.97 255.211 380.459 255.213C379.948 255.216 379.461 255.193 378.998 255.145L378.967 255.25C379.426 255.536 380.023 255.927 380.757 256.423C381.501 256.923 382.254 257.446 383.016 257.994L391.538 264.209L390.755 266.894L373.989 254.236C373.09 253.562 372.34 252.86 371.739 252.131C371.135 251.412 370.738 250.634 370.548 249.798C370.348 248.958 370.397 248.028 370.695 247.008C370.832 246.538 370.983 246.132 371.148 245.79C371.303 245.444 371.454 245.152 371.6 244.912L373.594 245.495C373.48 245.7 373.358 245.952 373.227 246.25C373.094 246.558 372.978 246.883 372.878 247.222C372.698 247.842 372.661 248.412 372.77 248.932C372.866 249.46 373.09 249.954 373.444 250.415C373.798 250.876 374.25 251.318 374.799 251.738L376.847 253.313L395.238 251.535Z" fill="white"/>
<path d="M362.268 290.464L372.503 292.441C372.944 292.522 373.373 292.602 373.791 292.682C374.212 292.776 374.613 292.865 374.993 292.948C375.378 293.046 375.732 293.134 376.057 293.211C376.385 293.303 376.668 293.382 376.904 293.448L376.955 293.351C376.763 293.202 376.537 293.018 376.276 292.797C376.025 292.581 375.754 292.337 375.462 292.065C375.165 291.801 374.855 291.519 374.531 291.218C374.217 290.921 373.905 290.609 373.596 290.28L366.323 282.816L367.692 280.235L385.032 284.087L383.773 286.461L374.265 284.215C373.635 284.069 373.014 283.917 372.403 283.758C371.796 283.613 371.228 283.46 370.701 283.298C370.178 283.15 369.729 283.007 369.355 282.868L369.297 282.978C369.498 283.155 369.742 283.361 370.03 283.597C370.313 283.841 370.612 284.1 370.927 284.373C371.246 284.66 371.559 284.949 371.864 285.241C372.178 285.537 372.47 285.821 372.738 286.093L380.026 293.529L378.716 296L368.537 294.052C368.022 293.956 367.491 293.846 366.944 293.721C366.392 293.605 365.862 293.483 365.352 293.355C364.852 293.231 364.414 293.099 364.04 292.96L363.982 293.07C364.275 293.273 364.625 293.547 365.032 293.892C365.438 294.237 365.883 294.621 366.367 295.042C366.846 295.473 367.332 295.913 367.825 296.363L375.006 303L373.769 305.333L360.856 293.129L362.268 290.464Z" fill="white"/>
<path d="M364.972 330.983L359.427 326.288C359.109 326.018 358.794 325.738 358.481 325.446C358.177 325.161 357.906 324.884 357.67 324.615L357.559 324.746C357.791 325.407 357.887 326.075 357.847 326.751C357.808 327.442 357.643 328.121 357.351 328.788C357.066 329.462 356.672 330.097 356.167 330.693C355.278 331.742 354.371 332.475 353.445 332.892C352.512 333.317 351.547 333.408 350.552 333.165C349.549 332.931 348.491 332.342 347.379 331.399L338.865 324.19L340.521 322.234L348.903 329.333C349.993 330.255 351.019 330.695 351.984 330.652C352.942 330.617 353.855 330.086 354.724 329.061C355.545 328.091 356.014 327.158 356.132 326.261C356.251 325.379 356.061 324.508 355.561 323.648C355.054 322.796 354.284 321.932 353.251 321.057L346.418 315.271L348.095 313.291L366.648 329.004L364.972 330.983Z" fill="white"/>
<path d="M330.909 356.069C329.775 356.986 328.6 357.522 327.384 357.675C326.168 357.828 324.979 357.625 323.816 357.065C322.659 356.513 321.593 355.634 320.616 354.428L319.604 353.177L328.799 345.737C327.51 344.193 326.158 343.317 324.744 343.109C323.329 342.9 321.937 343.35 320.568 344.457C319.726 345.139 319.044 345.818 318.52 346.496C317.997 347.174 317.508 347.945 317.054 348.808L315.619 347.035C316.049 346.191 316.54 345.432 317.093 344.757C317.637 344.089 318.359 343.391 319.258 342.664C320.537 341.628 321.864 340.983 323.239 340.728C324.613 340.488 325.972 340.661 327.317 341.247C328.663 341.834 329.929 342.86 331.114 344.325C332.274 345.759 333.038 347.191 333.405 348.622C333.771 350.068 333.746 351.428 333.33 352.703C332.906 353.984 332.099 355.106 330.909 356.069ZM329.596 354.397C330.673 353.526 331.247 352.479 331.316 351.257C331.386 350.035 330.971 348.743 330.07 347.382L323.025 353.082C323.675 353.869 324.364 354.464 325.092 354.867C325.818 355.284 326.558 355.462 327.313 355.401C328.074 355.348 328.835 355.013 329.596 354.397Z" fill="white"/>
<path d="M301.811 376.012C301.512 376.181 301.189 376.341 300.842 376.489C300.501 376.647 300.188 376.771 299.903 376.86L299.001 374.606C299.282 374.53 299.582 374.426 299.902 374.293C300.221 374.159 300.512 374.018 300.775 373.869C301.373 373.53 301.87 373.086 302.266 372.538C302.658 372.005 302.925 371.398 303.066 370.719C303.213 370.049 303.22 369.333 303.087 368.57C302.959 367.816 302.676 367.054 302.239 366.284L297.707 358.293L299.976 357.005L308.425 371.901L306.55 372.965L304.748 370.358L304.653 370.412C304.658 371.14 304.572 371.853 304.394 372.553C304.221 373.262 303.926 373.914 303.51 374.51C303.084 375.11 302.518 375.611 301.811 376.012Z" fill="white"/>
<path d="M276.741 387.73C275.372 388.232 274.088 388.359 272.887 388.112C271.687 387.864 270.627 387.288 269.707 386.383C268.79 385.487 268.065 384.311 267.53 382.854L266.976 381.343L278.08 377.269C277.359 375.393 276.362 374.127 275.09 373.473C273.818 372.819 272.356 372.795 270.703 373.402C269.686 373.775 268.82 374.198 268.106 374.67C267.392 375.143 266.681 375.715 265.973 376.385L265.187 374.243C265.866 373.584 266.576 373.024 267.317 372.563C268.048 372.107 268.956 371.679 270.042 371.281C271.587 370.714 273.051 370.532 274.435 370.735C275.812 370.95 277.043 371.553 278.127 372.542C279.211 373.532 280.078 374.911 280.727 376.681C281.362 378.412 281.622 380.014 281.508 381.488C281.388 382.974 280.925 384.253 280.12 385.325C279.305 386.401 278.179 387.202 276.741 387.73ZM276.039 385.724C277.34 385.247 278.22 384.441 278.681 383.307C279.141 382.173 279.165 380.816 278.752 379.237L270.244 382.358C270.605 383.312 271.065 384.098 271.624 384.714C272.177 385.343 272.82 385.751 273.554 385.937C274.291 386.132 275.12 386.061 276.039 385.724Z" fill="white"/>
<path d="M247.984 380.024C248.134 380.737 248.067 381.278 247.782 381.647C247.5 382.025 247.109 382.267 246.609 382.372C246.089 382.481 245.619 382.42 245.198 382.189C244.779 381.968 244.495 381.501 244.345 380.787C244.197 380.084 244.268 379.532 244.556 379.131C244.847 378.74 245.252 378.49 245.772 378.381C246.271 378.276 246.728 378.345 247.14 378.588C247.556 378.842 247.837 379.32 247.984 380.024Z" fill="white"/>
</svg>
